# xmcd
#
# Track frame offsets:
# 150
# 6182
# 24859
# 35366
# 52241
# 66497
# 79341
# 83813
# 91423
# 101064
# 118936
# 126893
# 135489
# 144496
# 159602
# 172508
# 196338
# 203683
# 213382
# 219942
# 229752
# 243122
# 255996
# 267071
# 277994
# 314222
#
# Disc length: 4413 seconds
#
#
# Revision: 0
# Processed by: cddbd v1.5.2PL0 Copyright (c) Steve Scherf et al.
# Submitted via: FreeRIP 2.951 
#
DISCID=6b113b1a
DTITLE=Brothers of Mercy 3 - Pleasure
DYEAR=2002
DGENRE=Blues
TTITLE0=Lord Have Mercy
TTITLE1=Heavently Construction
TTITLE2=Stormy Waters
TTITLE3=Blessed Assurance
TTITLE4=What a Friend (No1) - Jam Session
TTITLE5=See You In Heaven
TTITLE6=Hurry Up I
TTITLE7=Aspiration
TTITLE8=It's Glorious With Jesus
TTITLE9=Storms of Life - Jam Session
TTITLE10=Banner March
TTITLE11=Sea Of Grace
TTITLE12=Succession
TTITLE13=Farmer of Hearts
TTITLE14=Bright Side Of Life
TTITLE15=Comfort
TTITLE16=Confidential
TTITLE17=Joyful Hearts
TTITLE18=Beatitude
TTITLE19=Close To Thee
TTITLE20=Meeting Point
TTITLE21=Show Me The Way
TTITLE22=That's Blessing
TTITLE23=Great Promise
TTITLE24=Pleasure - Piano Fantasy
TTITLE25=Waht a Fried (No2)
EXTD=
EXTT0=
EXTT1=
EXTT2=
EXTT3=
EXTT4=
EXTT5=
EXTT6=
EXTT7=
EXTT8=
EXTT9=
EXTT10=
EXTT11=
EXTT12=
EXTT13=
EXTT14=
EXTT15=
EXTT16=
EXTT17=
EXTT18=
EXTT19=
EXTT20=
EXTT21=
EXTT22=
EXTT23=
EXTT24=
EXTT25=
PLAYORDER=
